<svg xmlns="http://www.w3.org/2000/svg" version="1.1" xmlns:xlink="http://www.w3.org/1999/xlink" xmlns:svgjs="http://svgjs.dev/svgjs" width="1440" height="560" preserveAspectRatio="none" viewBox="0 0 1440 560">
    <g mask="url(&quot;#SvgjsMask1000&quot;)" fill="none">
        <rect width="1440" height="560" x="0" y="0" fill="#0e2a47"></rect>
        <path d="M0 236.66L10 179.76L20 217.92L30 247.24L40 199.28L50 168.8L60 131.09L70 191.35L80 135.26L90 96.24L100 145.01L110 157.19L120 162.26L130 138.74L140 156.72L150 182.63L160 148.03L170 199.32L180 136.07L190 125.09L200 97.18L210 114.47L220 167.02L230 161.12L240 123.14L250 147.44L260 194.14L270 227.55L280 220.03L290 186.98L300 144L310 212.85L320 172.14L330 187.89L340 163.47L350 227.05L360 226.9L370 283.03L380 235.12L390 245.66L400 239.7L410 233.57L420 278.05L430 322.29L440 269.3L450 202.85L460 170.41L470 138.37L480 192.36L490 128.13L500 67.39L510 67.1L520 69.76L530 136.6L540 67.88L550 76.51L560 104.6L570 86.04L580 22.39L590 45.72L600 31.49L610 59.53L620 115.84L630 147.77L640 177.53L650 124.38L660 79.37L670 81.04L680 150.13L690 84.47L700 125.57L710 60.44L720 16.22L730 7.55L740 70.85L750 14.51L760 15.2L770 47.78L780 62.41L790 112.5L800 114.71L810 112.36L820 176.62L830 219.99L840 189.14L850 199.14L860 217.17L870 234.8L880 223.22L890 183.98L900 134.97L910 197.29L920 261.55L930 324.31L940 351.39L950 409.95L960 473.55L970 425.64L980 426.21L990 424.65L1000 435.25L1010 395.91L1020 360.59L1030 380.26L1040 335.9L1050 367.14L1060 409.22L1070 384.17L1080 402.94L1090 465.82L1100 436.95L1110 471.45L1120 528.59L1130 480.14L1140 433.91L1150 443.04L1160 470.39L1170 414.63L1180 354.05L1190 310.33L1200 269.69L1210 248.93L1220 315.8L1230 285.7L1240 340.28L1250 319.72L1260 303.85L1270 291.64L1280 227.48L1290 263.56L1300 303.77L1310 332.06L1320 327.11L1330 392.48L1340 358.61L1350 411.79L1360 447.18L1370 456.29L1380 426.55L1390 482.17L1400 462.65L1410 448.37L1420 487.35L1430 474L1440 406.97" stroke="#224b75" stroke-width="2"></path>
        <path d="M0 236.66L10 179.76L20 217.92L30 247.24L40 199.28L50 168.8L60 131.09L70 191.35L80 135.26L90 96.24L100 145.01L110 157.19L120 162.26L130 138.74L140 156.72L150 182.63L160 148.03L170 199.32L180 136.07L190 125.09L200 97.18L210 114.47L220 167.02L230 161.12L240 123.14L250 147.44L260 194.14L270 227.55L280 220.03L290 186.98L300 144L310 212.85L320 172.14L330 187.89L340 163.47L350 227.05L360 226.9L370 283.03L380 235.12L390 245.66L400 239.7L410 233.57L420 278.05L430 322.29L440 269.3L450 202.85L460 170.41L470 138.37L480 192.36L490 128.13L500 67.39L510 67.1L520 69.76L530 136.6L540 67.88L550 76.51L560 104.6L570 86.04L580 22.39L590 45.72L600 31.49L610 59.53L620 115.84L630 147.77L640 177.53L650 124.38L660 79.37L670 81.04L680 150.13L690 84.47L700 125.57L710 60.44L720 16.22L730 7.55L740 70.85L750 14.51L760 15.2L770 47.78L780 62.41L790 112.5L800 114.71L810 112.36L820 176.62L830 219.99L840 189.14L850 199.14L860 217.17L870 234.8L880 223.22L890 183.98L900 134.97L910 197.29L920 261.55L930 324.31L940 351.39L950 409.95L960 473.55L970 425.64L980 426.21L990 424.65L1000 435.25L1010 395.91L1020 360.59L1030 380.26L1040 335.9L1050 367.14L1060 409.22L1070 384.17L1080 402.94L1090 465.82L1100 436.95L1110 471.45L1120 528.59L1130 480.14L1140 433.91L1150 443.04L1160 470.39L1170 414.63L1180 354.05L1190 310.33L1200 269.69L1210 248.93L1220 315.8L1230 285.7L1240 340.28L1250 319.72L1260 303.85L1270 291.64L1280 227.48L1290 263.56L1300 303.77L1310 332.06L1320 327.11L1330 392.48L1340 358.61L1350 411.79L1360 447.18L1370 456.29L1380 426.55L1390 482.17L1400 462.65L1410 448.37L1420 487.35L1430 474L1440 406.97L1440 560L0 560z" fill="url(&quot;#SvgjsLinearGradient1001&quot;)"></path>
    </g>
    <defs>
        <mask id="SvgjsMask1000">
            <rect width="1440" height="560" fill="#ffffff"></rect>
        </mask>
        <linearGradient x1="50%" y1="0%" x2="50%" y2="100%" id="SvgjsLinearGradient1001">
            <stop stop-opacity="0.65" stop-color="#224b75" offset="0"></stop>
            <stop stop-opacity="0" stop-color="#508dcc" offset="0.8"></stop>
        </linearGradient>
    </defs>
</svg>